<?xml version="1.0" standalone="no"?>
<!DOCTYPE svg PUBLIC "-//W3C//DTD SVG 20010904//EN"
 "http://www.w3.org/TR/2001/REC-SVG-20010904/DTD/svg10.dtd">
<svg version="1.0" xmlns="http://www.w3.org/2000/svg"
 width="662.000000pt" height="662.000000pt" viewBox="0 0 662.000000 662.000000"
 preserveAspectRatio="xMidYMid meet">
<metadata>
Created by potrace 1.14, written by Peter Selinger 2001-2017
</metadata>
<g transform="translate(0.000000,662.000000) scale(0.100000,-0.100000)"
fill="#000000" stroke="none">
<path d="M3998 5325 c-2 -1 -46 -5 -98 -9 -357 -23 -651 -101 -946 -252 -214
-110 -425 -249 -589 -389 -111 -95 -285 -253 -388 -353 -55 -53 -35 -57 -173
36 -141 96 -417 222 -485 222 -31 0 -109 -57 -177 -129 -109 -116 -294 -498
-368 -761 -2 -8 -20 -71 -39 -140 -31 -109 -56 -222 -94 -430 -5 -30 -9 -111
-8 -180 3 -136 21 -228 83 -416 19 -56 34 -106 34 -112 0 -6 -22 -18 -49 -27
-64 -21 -163 -84 -224 -143 -187 -180 -243 -444 -119 -559 14 -13 56 -38 92
-55 76 -36 100 -38 428 -41 197 -2 304 2 512 18 237 18 252 17 325 -11 142
-54 167 -57 415 -58 207 -1 399 8 490 24 30 5 69 11 85 13 17 3 91 20 165 38
74 18 144 33 155 34 20 0 21 -3 24 -49 1 -32 45 -82 90 -105 33 -17 134 -44
205 -56 153 -24 696 -25 896 0 19 2 60 7 90 10 75 7 100 12 151 30 54 19 157
77 186 104 29 27 34 27 74 -9 106 -95 229 -176 329 -215 118 -46 214 -58 465
-59 217 -1 234 0 300 23 174 59 367 177 493 302 75 74 114 132 143 208 28 75
34 124 34 271 0 141 -9 169 -78 254 l-40 48 26 117 c38 166 42 192 53 351 41
587 -65 977 -409 1490 -47 70 -209 241 -322 339 -196 171 -496 361 -712 451
-170 71 -349 126 -468 144 -22 4 -71 11 -110 17 -59 9 -439 21 -447 14z"/>
</g>
</svg>
